<svg width="35" height="35" viewBox="0 0 35 35" fill="none" xmlns="http://www.w3.org/2000/svg">
<path d="M23.1569 11.8432L24.1569 11.8432L24.1569 10.8432L23.1569 10.8432L23.1569 11.8432ZM11.8432 21.7427C11.4527 22.1332 11.4527 22.7664 11.8432 23.1569C12.2337 23.5474 12.8669 23.5474 13.2574 23.1569L11.8432 21.7427ZM23.1569 20.3285L24.1569 20.3285V11.8432L23.1569 11.8432L22.1569 11.8432V20.3285L23.1569 20.3285ZM23.1569 11.8432L23.1569 10.8432L14.6716 10.8432V11.8432V12.8432L23.1569 12.8432L23.1569 11.8432ZM23.1569 11.8432L22.4498 11.1361L11.8432 21.7427L12.5503 22.4498L13.2574 23.1569L23.864 12.5503L23.1569 11.8432Z" fill="black"/>
</svg>
