<svg width="35" height="34" viewBox="0 0 35 34" fill="none" xmlns="http://www.w3.org/2000/svg">
<path d="M11.8431 22.6568L10.8431 22.6568L10.8431 23.6568L11.8431 23.6568L11.8431 22.6568ZM23.1568 12.7573C23.5473 12.3668 23.5473 11.7336 23.1568 11.3431C22.7663 10.9526 22.1331 10.9526 21.7426 11.3431L23.1568 12.7573ZM11.8431 14.1715L10.8431 14.1715V22.6568L11.8431 22.6568L12.8431 22.6568V14.1715L11.8431 14.1715ZM11.8431 22.6568L11.8431 23.6568L20.3284 23.6568V22.6568V21.6568L11.8431 21.6568L11.8431 22.6568ZM11.8431 22.6568L12.5502 23.3639L23.1568 12.7573L22.4497 12.0502L21.7426 11.3431L11.136 21.9497L11.8431 22.6568Z" fill="white"/>
</svg>
